# AST/ASF file generated using VICON BodyLanguage
# -----------------------------------------------
:version 1.10
:name VICON
:units
  mass 1.0
  length 0.45
  angle deg
:documentation
   .ast/.asf automatically generated from VICON data using
   VICON BodyBuilder and BodyLanguage model FoxedUp or BRILLIANT.MOD
:root
   order TX TY TZ RX RY RZ
   axis XYZ
   position 0 0 0  
   orientation 0 0 0 
:bonedata
  begin
     id 1 
     name lhipjoint
     direction 0.702568 -0.596508 0.388042 
     length 2.56661 
     axis 0 0 0  XYZ
  end
  begin
     id 2 
     name lfemur
     direction 0.34202 -0.939693 0  
     length 6.58374  
     axis 0 0 20  XYZ
    dof rx ry rz
    limits (-160.0 20.0)
           (-70.0 70.0)
           (-60.0 70.0)
  end
  begin
     id 3 
     name ltibia
     direction 0.34202 -0.939693 0   
     length 6.62538   
     axis 0 0 20   XYZ
    dof rx
    limits (-10.0 170.0)
  end
  begin
     id 4 
     name lfoot
     direction 0.10455 -0.287249 0.952133   
     length 2.26699   
     axis -90 7.62852e-016 20   XYZ
    dof rx rz
    limits (-45.0 90.0)
           (-70.0 20.0)
  end
  begin
     id 5 
     name ltoes
     direction 1.53572e-011 -4.22322e-011 1   
     length 1.12949   
     axis -90 7.62852e-016 20   XYZ
    dof rx
    limits (-90.0 20.0)
  end
  begin
     id 6 
     name rhipjoint
     direction -0.728055 -0.574632 0.373811   
     length 2.66432  
     axis 0 0 0  XYZ 
  end
  begin
     id 7 
     name rfemur
     direction -0.34202 -0.939693 0   
     length 6.66732   
     axis 0 0 -20   XYZ
    dof rx ry rz
    limits (-160.0 20.0)
           (-70.0 70.0)
           (-70.0 60.0)
  end
  begin
     id 8 
     name rtibia
     direction -0.34202 -0.939693 0   
     length 6.59288   
     axis 0 0 -20   XYZ
    dof rx
    limits (-10.0 170.0)
 end
 begin
     id 9 
     name rfoot
     direction -0.119193 -0.327479 0.93731   
     length 2.38061  
     axis -90 -7.62852e-016 -20   XYZ
    dof rx rz
    limits (-45.0 90.0)
           (-20.0 70.0)
  end
  begin
     id 10 
     name rtoes
     direction -1.53547e-011 -4.21827e-011 1   
     length 1.17899   
     axis -90 -7.62852e-016 -20   XYZ
    dof rx
    limits (-90.0 20.0)
  end
  begin
     id 11 
     name lowerback
     direction -0.000416114 0.999912 -0.0132284   
     length 2.12109   
     axis 0 0 0   XYZ
    dof rx ry rz
    limits (-20.0 45.0)
           (-30.0 30.0)
           (-30.0 30.0)
  end
  begin
     id 12 
     name upperback
     direction -0.00136371 0.99809 0.0617608   
     length 2.10067   
     axis 0 0 0   XYZ
    dof rx ry rz
    limits (-20.0 45.0)
           (-30.0 30.0)
           (-30.0 30.0)
  end
  begin
     id 13 
     name thorax
     direction -3.43026e-005 0.997776 0.0666515   
     length 2.10618   
     axis 0 0 0   XYZ
    dof rx ry rz
    limits (-20.0 45.0)
           (-30.0 30.0)
           (-30.0 30.0)
  end
  begin
     id 14 
     name lowerneck
     direction 0.0398646 0.998418 0.0396592   
     length 1.83817   
     axis 0 0 0   XYZ
    dof rx ry rz
    limits (-20.0 45.0)
           (-30.0 30.0)
           (-30.0 30.0)
  end
  begin
     id 15 
     name upperneck
     direction -0.0367268 0.961527 -0.272244   
     length 1.81975   
     axis 0 0 0   XYZ
    dof rx ry rz
    limits (-20.0 45.0)
           (-30.0 30.0)
           (-30.0 30.0)
  end
  begin
     id 16
     name head
     direction -0.0182665 0.99536 -0.0944669  
     length 1.86026  
     axis 0 0 0   XYZ
    dof rx ry rz
    limits (-20.0 45.0)
           (-30.0 30.0)
           (-30.0 30.0)
  end
  begin
     id 17 
     name lclavicle
     direction 0.924239 0.361045 0.124212  
     length 3.26878  
     axis 0 0 0   XYZ
    dof ry rz
    limits (-20.0 10.0)
           (0.0 20.0)
  end
  begin
     id 18 
     name lhumerus
     direction 1 -4.48968e-011 -2.56583e-027   
     length 4.58538   
     axis 180 -30 -90   XYZ
    dof rx ry rz
    limits (-60.0 90.0)
           (-90.0 90.0)
           (-90.0 90.0)
  end
  begin
     id 19
     name lradius
     direction 1 -4.4898e-011 -5.50375e-027   
     length 2.68935   
     axis 180 -30 -90   XYZ
    dof rx
    limits (-10.0 170.0)
  end
  begin
     id 20
     name lwrist
     direction 1 -4.48939e-011 -1.48955e-026   
     length 1.34468   
     axis 9.0955e-015 90 90   XYZ
    dof ry
    limits (-180.0 0.0)
 end
  begin
     id 21 
     name lhand
     direction 1 -4.48936e-011 -2.97907e-026   
     length 0.585058   
     axis 1.90115e-014 90 90   XYZ
    dof rx rz
    limits (-90.0 90.0)
           (-45.0 45.0)
  end
  begin
     id 22 
     name lfingers
     direction 1 -4.49082e-011 -5.96235e-026   
     length 0.471689   
     axis 3.80223e-014 90 90   XYZ
    dof rx
    limits (0.0 90.0)
  end
  begin
     id 23
     name lthumb
     direction 0.707107 -6.3489e-011 0.707107   
     length 0.677253   
     axis -90 45 -3.84942e-014   XYZ
    dof rx rz
    limits (-45.0 45.0)
           (-45.0 45.0)
  end
  begin
     id 24 
     name rclavicle
     direction -0.923098 0.371783 0.0983239   
     length 3.19656  
     axis 0 0 0   XYZ 
    dof ry rz
    limits (-10.0 20.0)
           (-20.0 0.0)
  end
  begin
     id 25 
     name rhumerus
     direction -1 -4.48976e-011 -2.5492e-027  
     length 4.4745   
     axis 180 30 90   XYZ
    dof rx ry rz
    limits (-90.0 60.0)
           (-90.0 90.0)
           (-90.0 90.0)
  end
  begin
     id 26 
     name rradius
     direction -1 -4.48941e-011 -4.36555e-027   
     length 2.93896   
     axis 180 30 90   XYZ
    dof rx
    limits (-10.0 170.0)
  end
  begin
     id 27 
     name rwrist
     direction -1 -4.49044e-011 -1.49032e-026   
     length 1.46948   
     axis 9.0955e-015 -90 -90   XYZ
    dof ry
    limits (-180.0 0.0)
  end
  begin
     id 28
     name rhand
     direction -1 -4.48826e-011 -2.97749e-026   
     length 0.405092   
     axis 1.90115e-014 -90 -90   XYZ
    dof rx rz
    limits (-90.0 90.0)
           (-45.0 45.0)
  end
  begin
     id 29
     name rfingers
     direction -1 -4.49209e-011 -5.96602e-026   
     length 0.326596   
     axis 3.80223e-014 -90 -90   XYZ
    dof rx
    limits (0.0 90.0)
  end
  begin
     id 30
     name rthumb
     direction -0.707107 -6.34776e-011 0.707107   
     length 0.468928   
     axis -90 -45 3.84942e-014   XYZ
    dof rx rz
    limits (-45.0 45.0)
           (-45.0 45.0)
  end
:hierarchy
  begin
    root lhipjoint rhipjoint lowerback
    lhipjoint lfemur
    lfemur ltibia
    ltibia lfoot
    lfoot ltoes
    rhipjoint rfemur
    rfemur rtibia
    rtibia rfoot
    rfoot rtoes
    lowerback upperback
    upperback thorax
    thorax lowerneck lclavicle rclavicle
    lowerneck upperneck
    upperneck head
    lclavicle lhumerus
    lhumerus lradius
    lradius lwrist
    lwrist lhand lthumb
    lhand lfingers
    rclavicle rhumerus
    rhumerus rradius
    rradius rwrist
    rwrist rhand rthumb
    rhand rfingers
  end

#!OML:ASF H:\Punching\Project 1\Capture day 1\Session 1\female.ASF
:FULLY-SPECIFIED
:DEGREES
362
root 0.675144 14.4022 1.09055 17.7045 -10.366 1.5114
lowerback 7.54596 -2.55466 0.244586
upperback -2.4541 -3.22678 2.61638
thorax -6.66727 -1.53914 3.0292
lowerneck -12.3531 2.45219 10.4541
upperneck 21.0036 1.36579 -1.41433
head 8.72095 1.29547 -2.06813
rclavicle -1.2921e-014 1.43125e-014
rhumerus 7.78188 -1.51689 -71.9581
rradius 128.978
rwrist -44.2992
rhand -8.14145 -25.3483
rfingers 7.12502
rthumb 17.7727 -54.5561
lclavicle -1.2921e-014 1.43125e-014
lhumerus 24.8118 -44.4426 83.2175
lradius 135.426
lwrist 11.4963
lhand -26.5139 7.0693
lfingers 7.12502
lthumb 0.049433 37.049
rfemur -9.78266 -8.17815 1.43722
rtibia 31.3402
rfoot -25.5178 -22.8014
rtoes -23.6107
lfemur -56.2723 2.02958 -13.326
ltibia 51.8849
lfoot -9.34453 8.9538
ltoes -6.82031
363
root 0.655529 14.3906 1.06442 17.3808 -9.07419 1.93254
lowerback 7.53442 -2.25578 0.528725
upperback -2.49656 -2.79251 2.68035
thorax -6.73663 -1.33468 2.88248
lowerneck -12.4168 1.68685 9.55785
upperneck 20.8238 0.48946 -1.32512
head 8.60204 0.821084 -1.9871
rclavicle -2.18663e-015 -2.62396e-014
rhumerus 9.51367 -2.83197 -70.8463
rradius 126.51
rwrist -44.1803
rhand -7.4435 -25.0274
rfingers 7.12502
rthumb 18.4442 -54.173
lclavicle -2.18663e-015 -2.62396e-014
lhumerus 24.242 -44.9198 83.8257
lradius 135.309
lwrist 11.0851
lhand -26.4705 6.94182
lfingers 7.12502
lthumb 0.0912831 36.9215
rfemur -9.35018 -8.95317 1.32479
rtibia 32.1327
rfoot -25.9115 -23.1535
rtoes -23.4549
lfemur -56.2515 1.6296 -13.882
ltibia 51.4392
lfoot -8.92133 7.98651
ltoes -6.93599
364
root 0.636849 14.3784 1.03692 17.065 -7.76686 2.35393
lowerback 7.55058 -1.9575 0.826105
upperback -2.56235 -2.35624 2.74379
thorax -6.8441 -1.12972 2.72883
lowerneck -12.4437 0.917794 8.66632
upperneck 20.6549 -0.386494 -1.24842
head 8.49066 0.346115 -1.90809
rclavicle -4.37326e-015 -3.18055e-015
rhumerus 11.4116 -4.06735 -69.6184
rradius 123.6
rwrist -43.9965
rhand -6.87629 -24.6755
rfingers 7.12502
rthumb 18.9898 -53.7685
lclavicle -4.37326e-015 -3.18055e-015
lhumerus 23.7448 -45.319 84.2679
lradius 135.159
lwrist 10.6558
lhand -26.4212 6.85865
lfingers 7.12502
lthumb 0.138924 36.8383
rfemur -8.8944 -9.76804 1.18931
rtibia 32.8796
rfoot -26.2954 -23.4693
rtoes -23.2456
lfemur -56.2181 1.16427 -14.4249
ltibia 50.9844
lfoot -8.48661 7.06153
ltoes -7.04133
365
root 0.619171 14.3658 1.00793 16.765 -6.48518 2.7631
lowerback 7.55311 -1.6557 1.14155
upperback -2.62279 -1.91431 2.79196
thorax -6.93589 -0.923877 2.5462
lowerneck -12.3987 0.163403 7.78925
upperneck 20.4404 -1.24199 -1.15478
head 8.36249 -0.117836 -1.81998
rclavicle 2.3059e-014 4.77083e-015
rhumerus 13.521 -5.21461 -68.325
rradius 120.165
rwrist -43.6748
rhand -6.52623 -24.4047
rfingers 7.12502
rthumb 19.3264 -53.4643
lclavicle 2.3059e-014 4.77083e-015
lhumerus 23.4171 -45.6518 84.4724
lradius 134.991
lwrist 10.333
lhand -26.4026 6.8696
lfingers 7.12502
lthumb 0.156864 36.8493
rfemur -8.43713 -10.5888 1.03778
rtibia 33.5701
rfoot -26.67 -23.7528
rtoes -22.9892
lfemur -56.1768 0.656661 -14.9402
ltibia 50.5336
lfoot -8.04827 6.20177
ltoes -7.14495
366
root 0.602029 14.3524 0.977524 16.4636 -5.23545 3.15039
lowerback 7.59145 -1.35844 1.45734
upperback -2.70258 -1.47596 2.84461
thorax -7.06475 -0.720055 2.36942
lowerneck -12.3038 -0.578254 6.93736
upperneck 20.2455 -2.07988 -1.079
head 8.24253 -0.573035 -1.7374
rclavicle 1.63003e-014 1.59028e-015
rhumerus 15.7605 -6.22838 -66.9473
rradius 116.15
rwrist -43.1736
rhand -6.44728 -24.2519
rfingers 7.12502
rthumb 19.4023 -53.3039
lclavicle 1.63003e-014 1.59028e-015
lhumerus 23.1834 -45.9061 84.54
lradius 134.809
lwrist 10.1131
lhand -26.3757 6.91653
lfingers 7.12502
lthumb 0.182861 36.8962
rfemur -7.95506 -11.3972 0.883624
rtibia 34.1953
rfoot -27.0529 -24.0196
rtoes -22.7117
lfemur -56.1114 0.112221 -15.4116
ltibia 50.0954
lfoot -7.61723 5.41064
ltoes -7.23534
367
root 0.585224 14.3384 0.946302 16.1658 -4.07503 3.50449
lowerback 7.63695 -1.06361 1.75639
upperback -2.77624 -1.04152 2.90057
thorax -7.18692 -0.518132 2.20469
lowerneck -12.1746 -1.28228 6.11781
upperneck 20.0567 -2.8716 -1.01192
head 8.12939 -1.00487 -1.65572
rclavicle 1.47101e-014 -1.27222e-014
rhumerus 18.1869 -7.0988 -65.5489
rradius 111.497
rwrist -42.4682
rhand -6.66474 -24.3814
rfingers 7.12502
rthumb 19.1932 -53.4543
lclavicle 1.47101e-014 -1.27222e-014
lhumerus 23.092 -46.0696 84.4406
lradius 134.632
lwrist 10.0293
lhand -26.3111 6.95911
lfingers 7.12502
lthumb 0.24526 36.9387
rfemur -7.47744 -12.1521 0.732755
rtibia 34.7524
rfoot -27.4317 -24.2697
rtoes -22.4269
lfemur -56.0185 -0.430873 -15.8256
ltibia 49.6789
lfoot -7.20734 4.70856
ltoes -7.31307
368
root 0.568398 14.3247 0.913408 15.8687 -3.028 3.81983
lowerback 7.73193 -0.772244 2.02909
upperback -2.87218 -0.610777 2.95894
thorax -7.35763 -0.317435 2.05813
lowerneck -12.0064 -1.94369 5.35854
upperneck 19.9189 -3.61358 -0.973331
head 8.03508 -1.41051 -1.58677
rclavicle 1.90833e-014 -1.27222e-014
rhumerus 20.7306 -7.80532 -64.1587
rradius 106.15
rwrist -41.5208
rhand -7.18685 -24.6903
rfingers 7.12502
rthumb 18.6911 -53.8124
lclavicle 1.90833e-014 -1.27222e-014
lhumerus 23.0277 -46.1614 84.2823
lradius 134.468
lwrist 10.0135
lhand -26.1772 6.92953
lfingers 7.12502
lthumb 0.374648 36.9089
rfemur -7.02205 -12.8325 0.595848
rtibia 35.2452
rfoot -27.7969 -24.5096
rtoes -22.1707
lfemur -55.894 -0.955851 -16.1703
ltibia 49.2813
lfoot -6.82234 4.10358
ltoes -7.38211
